<svg xmlns="http://www.w3.org/2000/svg" viewBox="0 0 1440 320">
    <path fill="red" fill-opacity="1" d="M0,224L6.2,208C12.3,192,25,160,37,154.7C49.2,149,62,171,74,202.7C86.2,235,98,277,111,282.7C123.1,288,135,256,148,202.7C160,149,172,75,185,58.7C196.9,43,209,85,222,106.7C233.8,128,246,128,258,138.7C270.8,149,283,171,295,181.3C307.7,192,320,192,332,202.7C344.6,213,357,235,369,234.7C381.5,235,394,213,406,202.7C418.5,192,431,192,443,213.3C455.4,235,468,277,480,256C492.3,235,505,149,517,96C529.2,43,542,21,554,37.3C566.2,53,578,107,591,154.7C603.1,203,615,245,628,229.3C640,213,652,139,665,117.3C676.9,96,689,128,702,138.7C713.8,149,726,139,738,138.7C750.8,139,763,149,775,165.3C787.7,181,800,203,812,224C824.6,245,837,267,849,234.7C861.5,203,874,117,886,74.7C898.5,32,911,32,923,48C935.4,64,948,96,960,96C972.3,96,985,64,997,90.7C1009.2,117,1022,203,1034,234.7C1046.2,267,1058,245,1071,197.3C1083.1,149,1095,75,1108,42.7C1120,11,1132,21,1145,58.7C1156.9,96,1169,160,1182,165.3C1193.8,171,1206,117,1218,90.7C1230.8,64,1243,64,1255,106.7C1267.7,149,1280,235,1292,229.3C1304.6,224,1317,128,1329,122.7C1341.5,117,1354,203,1366,245.3C1378.5,288,1391,288,1403,272C1415.4,256,1428,224,1434,208L1440,192L1440,0L1433.8,0C1427.7,0,1415,0,1403,0C1390.8,0,1378,0,1366,0C1353.8,0,1342,0,1329,0C1316.9,0,1305,0,1292,0C1280,0,1268,0,1255,0C1243.1,0,1231,0,1218,0C1206.2,0,1194,0,1182,0C1169.2,0,1157,0,1145,0C1132.3,0,1120,0,1108,0C1095.4,0,1083,0,1071,0C1058.5,0,1046,0,1034,0C1021.5,0,1009,0,997,0C984.6,0,972,0,960,0C947.7,0,935,0,923,0C910.8,0,898,0,886,0C873.8,0,862,0,849,0C836.9,0,825,0,812,0C800,0,788,0,775,0C763.1,0,751,0,738,0C726.2,0,714,0,702,0C689.2,0,677,0,665,0C652.3,0,640,0,628,0C615.4,0,603,0,591,0C578.5,0,566,0,554,0C541.5,0,529,0,517,0C504.6,0,492,0,480,0C467.7,0,455,0,443,0C430.8,0,418,0,406,0C393.8,0,382,0,369,0C356.9,0,345,0,332,0C320,0,308,0,295,0C283.1,0,271,0,258,0C246.2,0,234,0,222,0C209.2,0,197,0,185,0C172.3,0,160,0,148,0C135.4,0,123,0,111,0C98.5,0,86,0,74,0C61.5,0,49,0,37,0C24.6,0,12,0,6,0L0,0Z"></path></svg>